<!DOCTYPE svg PUBLIC "-//W3C//DTD SVG 1.1//EN" "http://www.w3.org/Graphics/SVG/1.1/DTD/svg11.dtd">
<!-- Uploaded to: SVG Repo, www.svgrepo.com, Transformed by: SVG Repo Mixer Tools -->
<svg width="800px" height="800px" viewBox="-2.4 -2.4 28.80 28.80" enable-background="new 0 0 24 24" version="1.1" xml:space="preserve" xmlns="http://www.w3.org/2000/svg" xmlns:xlink="http://www.w3.org/1999/xlink" fill="#000000" transform="rotate(0)">
<g id="SVGRepo_bgCarrier" stroke-width="0" transform="translate(0,0), scale(1)">
<path transform="translate(-2.4, -2.4), scale(0.8999999999999999)" d="M16,29.37448259423438C18.2388463519797,29.750193147752473,19.618960632261505,26.803483173418577,21.636280345387362,25.762323923912774C23.783818903570484,24.653957402248185,26.717837959996086,24.94583561679872,28.2313363488191,23.06176533353956C29.754283642201305,21.165932632546234,30.019025518404803,18.370941625552256,29.478483293597634,16C28.966607287265504,13.754794954330812,26.812006762255617,12.389136812056462,25.38590328965236,10.581046209131419C24.172344988382857,9.042431793852236,23.376422173830672,7.142297270926683,21.6964296969144,6.133494343200086C20.00468286716798,5.117633154373206,17.91132114349048,4.454246000065896,16,4.944993162429647C14.147380720998196,5.4206681463050295,13.63680845001937,8.245259058498442,11.77440483191688,8.681054476662482C8.66536842964009,9.408557261691366,5.015965080396088,6.339432797671074,2.3744936332832935,8.13331023133114C0.13405399021445064,9.654838742105534,0.0870725884546234,13.44929714828152,0.9973108899828631,15.999999999999996C1.9034845528469146,18.539312773521875,4.89953171993956,19.526385539852814,7.029909022961284,21.178884440248726C8.420089746707403,22.257224936124086,10.060541123405086,22.85098734166705,11.359420573338863,24.037719343535933C13.129958286898198,25.65538583699208,13.63481305380154,28.97757027555551,16,29.37448259423438" fill="#ec7ee8" strokewidth="0"/>
</g>
<g id="SVGRepo_tracerCarrier" stroke-linecap="round" stroke-linejoin="round" stroke="#CCCCCC" stroke-width="0.048"/>
<g id="SVGRepo_iconCarrier"> <g id="Layer_27"/> <g id="Layer_2"/> <g id="Layer_3"/> <g id="Layer_4"> <g> <path d="M22,8v11c0,1.65-1.35,3-3,3H5c-1.65,0-3-1.35-3-3V8c0-1.65,1.35-3,3-3h14C20.65,5,22,6.35,22,8z" fill="#6059B1"/> </g> <g> <circle cx="12" cy="7" fill="#FFBF42" r="5"/> </g> <g> <path d="M12,8c-0.2559,0-0.5117-0.0977-0.707-0.293c-0.3906-0.3906-0.3906-1.0234,0-1.4141l1-1 c0.3906-0.3906,1.0234-0.3906,1.4141,0s0.3906,1.0234,0,1.4141l-1,1C12.5117,7.9023,12.2559,8,12,8z" fill="#6059B1"/> </g> </g> <g id="Layer_5"/> <g id="Layer_6"/> <g id="Layer_7"/> <g id="Layer_8"/> <g id="Layer_9"/> <g id="Layer_10"/> <g id="Layer_11"/> <g id="Layer_12"/> <g id="Layer_13"/> <g id="Layer_14"/> <g id="Layer_15"/> <g id="Layer_16"> <g id="Layer_17"/> </g> <g id="Layer_18"/> <g id="Layer_19"/> <g id="Layer_20"/> <g id="Layer_21"/> <g id="Layer_22"/> <g id="Layer_23"/> <g id="Layer_24"/> <g id="Layer_25"/> <g id="Layer_26"/> </g>
</svg>